# xmcd
#
# Track frame offsets:
#	150
#	10435
#	20757
#	31525
#	48183
#	62452
#	82820
#	97894
#	113974
#	128705
#	141672
#
# Disc length: 2200 seconds
# Revision: 0
# Processed by: cddbd v1.5.2PL0 Copyright (c) Steve Scherf et al.
# Submitted via: dBpowerAMP V12.0
#
DISCID=8408960b
DTITLE=Fred Eaglesmith - 6 Volts
DYEAR=2012
DGENRE=Americana
TTITLE0=Cemetery Road
TTITLE1=Betty
TTITLE2=6 Volts
TTITLE3=Katie
TTITLE4=Dangerous
TTITLE5=Cigarette Machine
TTITLE6=Johnny Cash
TTITLE7=Betty Oshawa
TTITLE8=Stars
TTITLE9=Been a Long Time
TTITLE10=Trucker Speed
EXTD=
EXTT0=
EXTT1=
EXTT2=
EXTT3=
EXTT4=
EXTT5=
EXTT6=
EXTT7=
EXTT8=
EXTT9=
EXTT10=
PLAYORDER=
